<?xml version="1.0" encoding="UTF-8"?>
<svg version="1.1" xmlns="http://www.w3.org/2000/svg" width="300" height="300">
<path d="M0 0 C5.94 0 11.88 0 18 0 C18 24.75 18 49.5 18 75 C-19.62 75 -57.24 75 -96 75 C-96 69.39 -96 63.78 -96 58 C-48.48 57.505 -48.48 57.505 0 57 C0 38.19 0 19.38 0 0 Z " fill="#000000" transform="translate(282,205)"/>
<path d="M0 0 C37.62 0 75.24 0 114 0 C114 24.75 114 49.5 114 75 C108.06 75 102.12 75 96 75 C96 56.19 96 37.38 96 18 C64.32 17.67 32.64 17.34 0 17 C0 11.39 0 5.78 0 0 Z " fill="#000000" transform="translate(186,20)"/>
<path d="M0 0 C5.94 0 11.88 0 18 0 C18 32.34 18 64.68 18 98 C36.81 98 55.62 98 75 98 C75 103.28 75 108.56 75 114 C50.25 114 25.5 114 0 114 C0 76.38 0 38.76 0 0 Z " fill="#000000" transform="translate(113,93)"/>
<path d="M0 0 C5.61 0 11.22 0 17 0 C17 19.14 17 38.28 17 58 C48.68 58 80.36 58 113 58 C113 63.61 113 69.22 113 75 C75.71 75 38.42 75 0 75 C0 50.25 0 25.5 0 0 Z " fill="#000000" transform="translate(1,205)"/>
<path d="M0 0 C37.29 0 74.58 0 113 0 C113 5.61 113 11.22 113 17 C81.32 17 49.64 17 17 17 C17 36.14 17 55.28 17 75 C11.39 75 5.78 75 0 75 C0 50.25 0 25.5 0 0 Z " fill="#000000" transform="translate(1,20)"/>
</svg>
